<svg width="139" height="50" viewBox="0 0 139 50" fill="none" xmlns="http://www.w3.org/2000/svg">
<path fill-rule="evenodd" clip-rule="evenodd" d="M26.7047 4.4495C26.7047 6.69678 28.3798 7.72678 30.4854 7.72678C32.4954 7.72678 34.1705 6.69678 34.1705 4.4495C34.1705 2.24913 32.4954 1.21902 30.4854 1.21902C28.3798 1.21902 26.7047 2.24902 26.7047 4.4495ZM69.3418 39.6528C69.3418 40.5767 69.4506 46.0192 67.5209 44.1286C65.9647 42.6043 68.507 40.1756 69.3418 39.6528ZM70.9853 0.690635C66.9167 1.99791 68.7467 9.27199 73.7444 7.45727C77.4272 6.12007 76.2475 -0.999952 70.9853 0.690635ZM96.2019 10.8169V13.0641C94.7183 11.1914 92.5647 10.3486 89.8845 10.3486C84.1895 10.3486 78.6857 13.9069 78.6857 22.3342C78.6857 23.9615 78.8939 25.4081 79.2702 26.6837C79.2027 26.8389 79.1186 26.9837 79.0142 27.1166C78.0063 28.4019 76.99 29.7274 75.5893 30.4473L75.5643 10.7794L69.4042 10.7913L69.342 26.0973C67.9509 27.8585 66.3493 29.3019 64.7042 29.1231C63.3642 28.9825 62.7898 28.1399 62.7898 26.1266V10.8169H56.377V13.0641C54.8933 11.1914 52.7397 10.3486 50.0595 10.3486C44.3645 10.3486 38.8607 13.9069 38.8607 22.3342C38.8607 24.0526 39.0924 25.5697 39.5094 26.8964C38.2518 28.281 36.8257 29.2753 35.4629 29.123C34.1228 28.9824 33.5006 28.1398 33.5006 26.1265V10.8168H27.0877V11.7563C26.3603 11.9755 25.6394 12.0808 24.9341 12.0808C23.4984 12.0808 22.0626 11.6127 20.8183 10.8168H14.4053C16.6067 20.7892 12.5389 29.2166 8.99741 29.2166C7.27441 29.2166 6.41297 28.0461 6.41297 25.4242V10.8168H0V26.7353C0 31.3234 2.39302 34.3199 6.9395 34.3199C16.1762 34.3199 22.1106 27.7653 21.4406 15.9668C22.5412 16.3882 23.7856 16.6691 25.1255 16.6691C25.7664 16.6691 26.4214 16.6142 27.0878 16.494V27.6715C27.0878 31.5574 29.5764 34.3198 34.6494 34.3198C37.8789 34.3198 39.9846 32.9205 41.771 30.9091C43.9014 33.2462 46.952 34.3198 50.0596 34.3198C53.1706 34.3198 55.6114 33.1961 57.1906 30.7147C58.2434 33.0555 60.4929 34.3198 63.9387 34.3198C66.1973 34.3198 67.873 33.6678 69.2802 32.595L69.2729 33.2184C69.4268 35.7465 69.378 34.5177 65.9252 37.0901C64.7952 37.9316 63.6249 38.9943 62.9432 40.2294C58.8305 47.6854 69.1947 52.582 74.046 46.4714C76.2906 43.6443 75.4155 39.6187 75.6108 35.7514L78.6342 33.382C79.6907 32.5399 80.3377 31.6488 81.3089 30.6426L81.3123 30.6465L81.3078 30.5772C83.446 33.1443 86.634 34.3198 89.8849 34.3198C92.9959 34.3198 95.4366 33.1961 97.0158 30.7147C98.0687 33.0555 100.318 34.3198 103.764 34.3198C107.247 34.3198 109.344 32.7698 111.207 30.516C113.724 33.0142 117.545 34.3198 122.237 34.3198C127.871 34.3198 131.798 32.9228 135.296 30.3619L135.721 31.2677C135.791 31.4186 135.945 31.5146 136.114 31.5146L136.139 31.5138C136.317 31.5042 136.47 31.3886 136.526 31.2232L138.95 24.0053C139 23.8536 138.96 23.6862 138.845 23.573C138.729 23.4598 138.559 23.4211 138.403 23.4699L131.024 25.8413C130.855 25.8957 130.737 26.0461 130.727 26.2202C130.717 26.3941 130.817 26.5565 130.979 26.6294L132.167 27.1625C129.346 28.8898 126.359 29.8721 122.429 29.8721C119.126 29.8721 116.59 28.7484 115.393 26.4075C123.051 25.9861 129.177 24.0198 129.177 17.9801C129.177 13.111 125.3 10.3486 119.27 10.3486C113.288 10.3486 107.88 13.8132 107.88 21.6787C107.88 23.5276 108.17 25.1847 108.719 26.6439C107.437 28.1456 106.001 29.2828 104.53 29.123C103.19 28.9824 102.615 28.1398 102.615 26.1265V10.8168H96.2023L96.2019 10.8169ZM114.34 22.4748C114.292 22.147 114.292 21.8194 114.292 21.398C114.436 17.0438 116.589 15.0775 119.413 15.0775C121.901 15.0775 123.194 16.2947 123.194 18.1207C123.194 21.0702 119.652 21.9599 114.34 22.4749V22.4748ZM96.2019 26.0799C95.2925 28.4675 93.2346 29.5911 90.9374 29.5911C87.5874 29.5911 85.0988 27.2971 85.0988 22.2875C85.0988 17.3247 87.5873 15.0775 90.9374 15.0775C93.2346 15.0775 95.2925 16.2011 96.2019 18.5888V26.0799ZM56.3769 26.0799C55.4675 28.4675 53.4096 29.5911 51.1123 29.5911C47.7624 29.5911 45.2736 27.2971 45.2736 22.2875C45.2736 17.3247 47.7623 15.0775 51.1123 15.0775C53.4096 15.0775 55.4675 16.2011 56.3769 18.5888V26.0799Z" fill="white"/>
</svg>
